<svg viewBox="0 0 256 96" xmlns="http://www.w3.org/2000/svg" xmlns:xlink="http://www.w3.org/1999/xlink" id="Random_doodles_and_markings" overflow="hidden"><style>
.MsftOfcThm_Accent6_Fill_v2 {
 fill:#D8CAB7; 
}
</style>
<defs></defs><path d="M194.741 11.4664 194.741 11.4664C194.475 16.9233 190.658 21.1997 187.136 24.5789 180.977 30.4884 177.099 38.0367 171.201 44.0392 166.896 48.4196 164.959 54.5438 160.531 58.9418 159.126 60.3373 157.181 61.09 156.112 62.6559 152.223 68.3527 147.793 73.6535 144.071 79.4877 142.451 82.0274 139.545 83.7537 137.056 86 136.052 85.5524 136.059 84.2983 136.555 82.9905 138.26 78.4986 141.154 74.625 143.284 70.3344 145.973 64.9189 148.915 59.6206 152.889 54.8615 158.305 48.3737 161.461 40.3325 168.425 34.6848 171.562 32.1409 176.142 29.0936 175.901 23.6167 180.35 22.2652 182.934 19.184 185.245 15.3433 187.92 14.6549 189.245 11.937 191.272 10.1905 192.664 9.7792 193.753 9.9605 194.74 11.4663L194.74 11.4663ZM99.4147 24.5353 99.4147 24.5353C100.498 23.4267 101.001 21.4471 99.9815 19.4003 97.6871 18.6714 96.0318 19.0409 94.3554 20.8298 92.6323 22.6686 90.5328 24.278 88.3343 25.5276 84.6546 27.6191 81.6245 30.2008 79.9091 34.1188 79.2829 35.5491 77.8305 35.9452 76.8496 36.888 73.0492 43.1228 65.8549 46.2848 62.4077 52.8481 62.1009 55.4113 60.2797 57.1023 58.6411 59.0105 54.2281 64.1496 50.6023 69.8278 47.649 75.9276 47.1337 76.9919 46.4432 77.9708 45.8746 79.0113 45.0481 80.5238 44.9613 81.8833 47.1174 82.9836 52.6903 77.6362 58.665 72.5945 62.7024 65.4763 65.588 63.516 67.8121 60.5872 70.049 57.6914 71.8372 55.3767 73.4056 52.9597 76.3675 51.8061 78.4757 50.9849 79.0525 48.8157 79.5732 46.8573 83.0408 44.309 86.128 41.5399 87.9673 37.5971 88.7079 36.0095 90.0052 34.8056 91.4988 33.8456 95.071 31.5496 96.5485 27.4673 99.4147 24.5352L99.4147 24.5352ZM100.209 36.7873 100.209 36.7873C89.7526 52.0909 76.7887 65.6574 68.1347 82.4759 71.361 84.4987 72.9551 82.135 74.3874 80.5693 81.2145 73.1057 88.1089 65.682 94.5215 57.8713 98.352 53.2056 103.017 49.3576 106.8 44.8244 110.621 40.2473 113.605 34.8605 117.301 30.065 117.893 29.297 118.414 28.4361 119.138 27.8153 120.946 26.2647 122.057 24.345 121.116 22.1057 120.076 19.6303 117.704 20.4445 115.51 20.4828 111.342 25.7006 105.316 28.9187 100.886 34.0564 100.675 34.9078 100.442 35.8476 100.209 36.7873L100.209 36.7873ZM162.234 73.6313 162.234 73.6313C161.762 74.7332 161.26 75.609 163.043 76.4909 165.535 74.6882 167.866 73.0053 169.359 70.1294 171.307 66.3793 175.128 64.1315 177.857 60.9495 183.32 54.5781 189.34 48.7133 194.736 42.2447 197.524 38.9013 200.195 35.1459 204.261 32.8055 207.647 30.8562 207.368 26.338 209.765 23.5875 211.36 21.7579 211.143 20.095 209.555 18.3735 205.199 16.7378 202.809 20.2109 200.961 22.6457 195.918 29.2877 189.441 34.5341 184.126 40.9375 177.852 48.4953 173.076 56.8206 168.012 65.0781 166.231 67.982 163.625 70.3912 162.234 73.6312L162.234 73.6312ZM75.0759 26.7943C74.4618 25.5947 73.4202 25.3754 71.7429 25.1089 62.6592 35.6831 51.5921 44.8369 42.9481 57.7448 34.7 64.8282 27.6454 74.3412 21.4654 84.9817 24.6432 86.181 26.0218 84.2545 27.0339 82.9685 32.0532 76.5909 38.0621 71.1364 43.4301 65.0893 50.9339 56.6363 58.861 48.5486 66.185 39.9482 68.9621 36.687 71.6449 33.2503 74.1435 29.7225 74.7781 28.8264 75.286 27.8777 75.0759 26.7943ZM144.718 54.7222 144.718 54.7222C148.887 49.6966 153.565 45.0265 156.348 38.9306 161.212 35.7084 163.061 31.8136 161.765 27.268 159.475 26.0986 157.318 26.3005 155.862 28.5857 153.622 32.1022 151.005 35.1032 147.965 38.0731 143.258 42.6737 138.508 47.5457 135.349 53.569 134.145 55.864 131.573 57.3295 130.348 59.4071 127.52 64.2044 123.5 68.5951 122.86 74.4234 125.088 75.727 126.484 75.1317 127.68 73.8168 128.553 72.858 129.362 71.8373 130.148 70.8055 134.548 65.032 140.098 60.2904 144.718 54.7222L144.718 54.7222ZM212.947 33.0065 212.947 33.0065C211.015 34.7559 209.629 36.7019 209.088 39.5041 207.355 40.443 206.22 41.6941 205.879 43.5259 205.402 46.0882 202.375 46.3697 201.417 48.4834 198.969 53.8902 195.161 58.3971 191.689 63.1263 189.35 66.3118 187.574 69.7182 187.238 73.7716 194.467 68.9447 199.158 62.0513 204.43 54.613 206.745 53.2677 209.249 51.0483 211.443 48.2523 215.35 43.273 219.792 38.7133 223.884 33.8722 225.627 31.81 226.993 29.4163 227.789 26.8254 228.508 24.4886 226.703 22.0818 224.415 22.6016 221.848 23.1848 218.783 24.2439 217.852 26.7308 216.812 29.5061 214.909 31.231 212.947 33.0066L212.947 33.0066ZM140.317 31.1781 140.317 31.1781C141.897 29.3376 142.475 27.5416 141.497 25.4032 137.686 24.4171 127.571 33.2989 124.131 40.5016 123.211 40.9739 122.162 41.5123 120.98 42.1195 120.563 43.2638 120.123 44.4708 119.696 45.6447 113.148 50.6575 99.8429 71.0149 100.18 75.5605 102.069 76.1912 102.974 74.661 103.885 73.6302 109.437 67.3486 114.924 61.009 120.354 54.6228 121.391 53.4041 122.208 51.9518 122.893 50.4982 123.719 48.745 124.755 47.3407 126.695 46.7629 127.896 46.4051 128.569 45.5218 129.338 44.5419 132.897 40.0078 136.562 35.5529 140.317 31.178L140.317 31.178ZM35.5837 44.2098 35.5838 44.2098C31.5331 49.9851 26.3884 54.8946 22.7566 61.2278 22.8535 62.481 23.7143 63.3109 25.3609 63.8514 29.3683 62.18 32.348 58.7236 34.8916 55.5222 39.0346 50.3075 44.2099 46.3133 48.8353 41.6955 52.3274 38.2092 54.6431 33.7403 58.5236 30.5736 59.7742 29.5531 60.0907 27.9272 58.9368 26.4791 57.7693 25.0141 56.321 24.8837 54.549 25.5164 51.8051 26.496 50.0923 28.8552 48.5153 30.8064 44.5667 35.6918 39.1173 39.1717 35.5837 44.2098L35.5837 44.2098ZM244.88 35.749 244.88 35.749C245.698 34.1283 246.402 32.6547 245.733 30.6562 241.101 26.5427 235.013 30.8652 233.449 35.0766 232.277 38.2352 230.321 41.0553 227.932 42.4169 223.807 44.7673 221.799 48.3637 219.575 52.0224 216.96 56.3266 214.395 60.6618 211.852 65.0088 211.257 66.0245 210.604 67.16 212.25 68.2416 214.413 67.3262 216.352 65.7337 217.517 63.8307 220.69 58.6469 225.507 55.1112 229.573 50.8217 232.458 47.7781 235.895 45.3496 238.484 41.9092 240.184 39.6501 243.422 38.634 244.88 35.7489L244.88 35.7489ZM41.5869 25.4757C37.4208 22.5106 34.7281 25.2673 31.1034 29.737 25.6202 36.4985 21.0354 43.9447 14.5856 49.9835 12.4934 51.9423 11.4683 55.0313 10.0001 57.5267 11.8361 59.5267 13.0183 58.4148 14.072 57.2838 19.7332 51.2079 25.2931 45.0368 31.0248 39.0281 33.7848 36.1348 36.8855 33.5666 39.7526 30.7706 41.1616 29.3966 42.4268 27.8519 41.5869 25.4757Z" id="Graphic" class="MsftOfcThm_Accent6_Fill_v2" stroke-width="0" fill="#D8CAB7"/></svg>