<svg viewBox="0 0 256 135" xmlns="http://www.w3.org/2000/svg" xmlns:xlink="http://www.w3.org/1999/xlink" id="Random_doodles_and_markings" overflow="hidden"><style>
.MsftOfcThm_Accent5_lumMod_60_lumOff_40_Fill_v2 {
 fill:#D7C6B1; 
}
</style>
<defs></defs><path d="M82.7768 110.88C82.7768 110.88 84.0581 102.123 84.0581 102.123 86.076 94.1787 87.6717 86.1223 89.0686 78.048 90.6804 68.7316 90.8839 60.5361 91.7032 51.1151 92.096 46.5978 93.427 40.8813 93.4424 36.3469 93.4568 32.0903 94.8889 20.0555 92.097 17.4748 89.478 14.5526 86.1091 12.3868 82.826 11.6656 81.0901 11.2839 78.5965 11.1603 76.5693 12.7356 75.096 13.8811 73.5259 14.9789 72.0077 16.0407 68.7494 18.3196 65.507 20.7614 63.0134 23.8917 61.1026 26.2905 60.5173 29.3994 59.0209 32.025 58.0515 33.7259 56.5113 34.9012 55.3431 36.4271 52.8255 39.7159 51.1919 43.47 48.5981 46.7375 45.8974 50.1396 42.9932 53.3739 40.0932 56.6058 36.528 60.5791 32.9478 64.5553 29.764 68.8461 26.5927 73.12 23.868 77.7133 21.9467 82.6855 21.754 83.1842 21.6274 83.5744 21.1334 83.8531 16.8587 86.265 15.135 90.8519 13.609 95.2563 13.5322 95.478 13.4557 95.6998 13.3792 95.9217 12.4444 98.6307 11.4777 101.433 10.0037 104.028 9.9359 104.438 10.8113 105.917 12.409 106.941 13.8371 107.855 17.7983 107.805 20.9608 106.367 22.569 105.636 23.2314 104.833 23.2843 104.473 24.6301 95.3149 27.2454 90.9435 32.7404 85.2992 36.542 81.3943 39.6741 76.9249 43.1514 72.7444 45.7338 69.6398 48.8335 66.8395 50.5411 63.1111 51.3122 61.4274 51.5185 59.513 52.6286 57.9962 53.8129 56.3781 55.7438 55.4807 57.1987 54.1433 59.212 52.2926 60.4351 50.0479 61.5268 47.5669L61.85 45.6722C65.6246 39.5903 69.4551 30.6144 75.7084 27.6782L82.1684 25.033 82.3954 30.9299C81.6152 35.2207 81.9021 44.1053 81.94 48.2551 81.9889 53.584 80.3434 59.7706 78.6927 65.3741 77.9443 67.9143 77.7412 70.7294 77.4009 73.3424 76.7723 78.1693 74.7683 83.1778 74.6837 88.047 74.6573 89.5657 74.6571 91.0217 74.8622 92.5246 75.0398 93.8255 74.325 95.2346 73.9635 96.4702 72.3547 101.97 73.2502 107.283 72.3756 112.797 71.0213 120.064 77.3528 122.312 80.5562 123.239 84.0135 124.24 87.3241 123.166 89.8926 121.455 91.605 120.313 97.9541 116.783 103.034 108.855 103.688 107.834 105.031 103.251 105.238 102.17 105.742 99.535 106.766 97.1939 107.701 95.0547 108.323 93.6326 108.698 91.3636 110.205 90.6503 115.298 85.1526 117.82 78.8658 119.611 74.2899 121.098 70.491 122.598 66.233 125.456 63.2161 127.952 60.5822 131.204 57.9875 132.356 54.3515 133.509 50.7126 134.817 46.5882 138.44 43.6514 140.609 41.8922 142.427 39.6267 144.353 37.2287 147.466 33.352 150.143 27.268 155.269 24.8061L160.944 21.404 161.171 30.2494C159.502 34.2003 157.851 38.2174 158.115 42.5511 158.315 45.8158 158.521 49.1916 157.904 52.6482 157.194 56.6265 156.387 60.6442 155.608 64.5294 154.374 70.6815 154.97 76.6617 154.062 82.9419 153.867 84.2964 153.659 85.6539 153.453 87.0114 152.577 92.7584 149.8 99.0825 149.796 104.828 149.793 108.674 151.136 113.061 153.215 116.006 157.263 121.735 160.867 124.58 164.556 124.957 167.941 125.306 171.635 123.563 175.834 119.636 180.914 114.887 184.478 109.126 188.252 103.027 191.052 98.5025 192.774 93.742 196.34 89.5289 198.401 87.093 200.316 84.653 201.1 81.5952 202.726 75.2592 207.585 70.0467 210.913 65.583 212.678 63.2155 214.87 61.3218 216.992 59.4903 220.647 56.3347 223.585 51.3702 225.138 46.8269 226.834 41.8645 229.135 38.1043 232.492 34.013 233.333 32.9879 234.128 32.0196 234.872 31.0369 235.777 29.8453 236.7 28.6707 237.622 27.4976 240.499 23.8377 243.217 20.3807 245.351 16.4417 246.268 14.7493 246.093 14.2116 245.566 13.7112 244.47 13.3728 242.774 13.1665 241.471 14.4228 238.816 16.9873 235.784 18.8751 232.853 20.7015 230.366 22.2504 228.018 23.7135 225.969 25.5195 220.144 30.6545 215.709 36.855 211.013 43.4197 207.848 47.8426 204.577 52.4164 200.858 56.5986 199.59 58.0249 199.064 60.4731 197.722 61.7753 195.172 64.2496 192.998 67.873 191.592 70.5073 188.059 77.1269 181.32 86.5131 177.921 94.3661 176.729 97.119 173.945 103.158 172.21 105.058 170.945 106.446 169.748 107.757 168.894 109.281L167.301 112.126 164.92 109.898C161.586 106.779 162.986 103.99 163.514 102.939 166.083 92.8962 166.62 84.9094 167.637 76.0159 166.726 73.0557 166.594 69.4578 168.222 66.3052 168.671 65.4369 170.007 56.1969 169.819 54.1632 169.365 49.2584 170.929 44.6257 171.818 40.1267 172.152 38.4358 172.469 36.8386 172.696 35.2543 173.191 31.8127 172.756 29.1096 172.296 26.2486 171.828 23.3397 172.333 16.0003 169.762 14.0919 169.451 13.7695 169.148 13.4565 168.877 13.1585 166.712 10.7884 163.611 9.9773 160.492 10.0009 158.638 10.0149 153.628 10.1145 152.11 11.2289 142.741 18.1071 137.885 25.7005 132.751 33.7299 130.455 37.321 128.242 41.1323 125.536 44.4351 123.754 46.6118 122.027 46.8029 120.762 49.3012 119.836 51.1292 118.045 53.6309 116.923 55.4601 115.863 57.1901 114.62 58.7885 113.569 60.5328 112.151 62.8865 111.216 64.4139 110.387 65.3264 108.964 68.3816 106.914 71.7454 104.749 75.2975 102.12 79.6122 99.3187 83.9078 97.5525 88.6688 96.6277 91.1617 95.9982 93.7623 95.8236 96.42 95.6406 99.2061 96.1543 100.369 93.8217 102.279 91.4925 104.186 89.4096 110.879 86.0627 110.879L82.7769 110.881Z" id="Graphic" class="MsftOfcThm_Accent5_lumMod_60_lumOff_40_Fill_v2" stroke-width="0" fill="#D7C6B1"/></svg>