<svg viewBox="0 0 256 218" xmlns="http://www.w3.org/2000/svg" xmlns:xlink="http://www.w3.org/1999/xlink" id="Inky_abstract_shapes" overflow="hidden"><style>
.MsftOfcThm_Accent4_lumMod_60_lumOff_40_Fill_v2 {
 fill:#9FACAC; 
}
</style>
<defs></defs><path d="M33.1052 40.5842C32.5019 47.1557 32.388 53.7823 31.3619 60.3499 30.5499 65.5467 31.0957 70.9676 29.63 76.0254 28.0236 81.5684 29.8606 87.465 27.4976 92.8201 26.0685 96.0587 25.1231 99.4445 24.0027 102.783 22.5708 107.051 17.4836 108.137 14.3275 104.965 11.7482 102.373 9.7003 99.2306 10.0363 95.5231 10.59 89.4131 9.4015 83.2605 10.6244 77.2062 13.5308 62.8176 15.5848 48.2602 19.1585 34.0052 19.47 32.7629 19.9297 31.5125 20.5634 30.4048 22.3136 27.3456 25.0542 27.0393 27.769 29.0966 31.6325 32.0245 33.3582 35.7834 33.1052 40.5842ZM84.1401 43.6013C80.5329 43.8075 79.8041 46.9594 78.5224 49.4924 78.4286 49.6778 78.4421 49.9146 78.3819 50.1205 76.339 57.0999 75.9941 64.4458 73.5955 71.3837 72.7229 73.9078 73.8279 77.0892 73.0577 79.6813 71.3913 85.2903 72.5174 90.7601 73.2928 96.189 74.0933 101.794 75.3787 107.336 75.6201 113.015 75.7696 116.534 77.3374 119.21 80.129 121.164 82.7759 123.017 86.2043 121.892 86.7603 118.86 87.8392 112.976 89.5092 107.245 90.9084 101.445 92.5032 94.8338 91.6193 88.045 92.3153 81.3444 92.9611 75.1284 92.1121 68.7478 92.7524 64.3919 92.9428 58.1224 92.3238 53.8979 91.0294 49.7751 90.2017 47.1388 86.2546 43.4803 84.14 43.6012ZM66.0362 23.1323C66.0067 19.4244 64.4222 16.2064 62.2852 13.3751 58.6258 8.5266 56.0992 8.9404 53.4798 14.3682 52.4193 16.5657 51.8392 18.8558 51.8229 21.2065 51.8032 24.0368 51.2594 26.7674 50.731 29.4948 48.9556 38.6575 46.7764 47.7421 47.6144 57.224 47.9337 60.8369 47.4285 64.5161 47.6101 68.1497 47.8325 72.5988 47.2588 77.2619 50.498 81.0949 51.6232 82.4263 52.8646 83.3734 54.6126 83.164 56.5132 82.9363 57.6232 81.6523 58.2137 79.8785 59.5988 75.718 61.2569 71.6254 62.2973 67.3809 63.0623 64.2598 64.4988 61.3944 64.9691 58.1368 66.0176 50.8733 66.1579 43.6033 66.0405 36.3021 66.0445 31.9131 66.0711 27.5225 66.0362 23.1324ZM111.368 76.7607C108.041 75.2371 105.12 76.6331 105.164 80.3322 105.235 86.2809 101.978 91.5229 102.095 97.5579 102.176 101.718 101.605 106.096 99.6174 110.02 99.4842 110.283 99.5339 110.66 99.5592 110.979 99.9703 116.163 101.225 121.266 100.898 126.524 100.646 130.578 102.707 134.202 103.271 138.142 103.734 141.371 105.385 144.22 108.57 145.828 111.139 147.126 113.115 146.52 114.492 143.994 115.402 142.324 115.135 140.398 115.783 138.696 118.335 131.992 118.585 124.773 118.842 117.885 119.068 111.802 118.228 105.593 118.919 98.8605 119.143 94.4192 116.59 89.852 116.646 84.8415 116.689 81.026 114.92 78.3882 111.368 76.7609ZM142.775 106.792C144.6 106.228 145.478 104.812 145.478 103.159 145.475 97.043 148.209 91.5268 149.186 85.5861 150.64 76.7394 149.908 67.8847 150.863 61.353 151.026 53.3207 149.432 47.8467 147.958 42.3563 147.084 39.1042 145.17 36.9262 141.758 36.0261 139.022 35.3041 137.175 36.0351 136.831 38.7693 136.327 42.7763 136.236 46.8346 135.768 50.8474 135.345 54.4735 135.867 58.1306 135.007 61.7585 134.193 65.1891 133.789 68.7259 133.348 72.2341 132.311 80.4966 133.172 88.7166 134.023 96.9358 134.37 100.289 135.692 103.178 138.041 105.539 139.306 106.811 140.904 107.37 142.775 106.792ZM245.917 113.381C245.701 107.375 246.233 101.349 245.456 96.4957 245.563 92.4217 245.152 89.5525 244.135 86.8055 243.099 84.0028 238.247 80.8386 235.749 81.2129 232.746 81.6629 230.542 84.6722 230.275 88.6133 230.225 89.3505 229.941 90.0696 229.859 90.8074 229.008 98.4756 227.296 106.222 228.83 113.855 230.237 120.853 229.495 127.917 230.591 134.885 230.99 137.423 233.024 140.618 235.494 141.066 238.437 141.601 239.717 139.651 240.799 137.372 244.018 130.59 243.095 122.839 245.833 115.939 246.129 115.192 245.948 114.237 245.917 113.381ZM84.4597 143.33C84.2835 142.299 83.8051 141.266 83.2525 140.365 81.891 138.146 77.3411 135.802 75.583 136.505 72.9779 137.547 70.9667 139.711 71.359 142.393 72.2217 148.292 69.3436 153.714 69.944 159.6 70.6992 167.005 70.2176 174.566 72.7275 181.721 74.0504 185.493 75.927 189.038 79.3275 191.444 80.7989 192.485 82.4336 192.943 84.1771 192.027 85.8631 191.14 86.1249 189.623 86.0246 187.907 85.7686 183.523 86.6536 179.196 86.5321 174.76 86.4374 171.303 87.16 167.552 87.7535 163.486 86.7143 157.063 85.6325 150.188 84.4597 143.329ZM178.711 169.206C179.181 161.968 177.318 154.732 177.827 147.422 177.912 146.195 177.568 144.77 176.961 143.698 175.667 141.413 173.428 140.112 170.875 140.108 169.097 140.105 168.045 141.739 167.996 143.482 167.816 149.796 165.916 155.895 165.592 162.148 165.223 169.258 165.506 176.401 165.506 185.193 166.97 189.319 166.873 195.415 168.134 201.288 168.487 202.933 169.49 204.198 170.572 205.405 172.042 207.044 173.613 208.732 176.081 207.666 178.477 206.631 178.564 204.349 178.471 202.14 178.366 199.67 177.617 197.087 178.111 194.759 179.919 186.255 178.158 177.721 178.711 169.206ZM147.155 118.209C142.65 116.037 139.385 117.247 138.622 122.257 138.186 125.113 137.92 127.994 137.573 130.863 136.905 136.379 136.06 141.852 136.927 147.471 137.48 151.058 137.349 154.751 137.541 158.725 137.517 158.933 137.346 159.479 137.411 159.996 137.955 164.378 138.335 168.862 142.612 171.549 145.739 173.515 147.89 172.425 149.216 168.974 150.3 166.153 150.071 163.252 150.468 160.419 151.078 156.061 152.709 151.974 153.09 147.527 153.548 142.175 153.212 136.828 153.695 131.492 154.209 125.82 153.033 121.043 147.155 118.209ZM175.456 57.5383C172.337 55.8159 169.622 56.8131 169.068 60.3363 168.82 61.9141 168.949 63.5538 168.937 65.1657 168.904 69.3514 169.355 73.5268 168.952 77.7252 168.173 85.8281 166.733 93.8748 166.932 102.054 166.932 104.74 166.964 107.426 166.924 110.111 166.878 113.258 168.427 115.708 170.454 117.838 173 120.513 176.709 119.532 177.664 115.935 179.978 107.218 181.413 98.3288 181.936 89.3399 182.405 81.2794 181.424 73.2765 180.319 65.2786 179.833 61.7585 178.603 59.2759 175.456 57.5384ZM208.759 121.924C207.968 117.696 207.116 113.464 205.506 109.446 204.309 106.458 201.704 105.157 198.837 105.236 196.206 105.309 195.416 107.77 194.881 110.076 194.167 113.157 194.677 116.257 194.578 119.344 194.239 129.941 194.778 140.434 197.692 150.685 198.655 154.071 199.036 157.71 201.564 160.507 202.736 161.803 204.073 162.624 205.827 162.101 207.623 161.565 208.213 160.044 208.398 158.349 208.607 156.425 208.681 154.485 208.948 152.57 209.57 148.109 210.983 143.75 210.725 139.162 210.455 133.372 209.823 127.618 208.758 121.924ZM56.5158 105.782C56.2439 102.252 54.4134 99.8543 51.5223 97.9793 47.2294 95.1951 43.8753 96.6795 43.1651 101.831 42.1648 109.087 42.6419 116.382 42.5549 123.665 42.4953 128.656 44.4268 133.322 44.5379 138.292 44.6268 142.268 45.4128 146.219 47.1298 149.857 47.8086 151.295 48.9123 152.718 50.8399 152.446 52.7341 152.178 52.876 150.54 53.1943 149.037 53.9551 145.445 53.3917 141.548 54.5182 138.207 56.6234 131.963 57.0322 125.636 57.3443 119.207 57.3443 116.964 57.4547 114.714 57.3132 112.48 57.1713 110.24 56.6882 108.022 56.5157 105.782ZM206.847 41.5862C205.597 40.3474 204.508 38.8709 202.51 39.4609 200.367 40.0943 198.733 41.2949 198.153 43.7163 197.138 47.9557 197.597 52.2342 197.768 56.4713 198.053 63.5451 198.791 70.5993 199.196 77.6699 199.462 82.3162 199.821 86.908 201.977 91.1459 202.794 92.7499 203.833 94.0992 205.87 94.0218 207.933 93.9433 208.446 92.3404 208.889 90.7558 211.299 82.1306 211.929 73.2591 212.422 64.3761 212.533 62.5599 212.936 60.7049 212.702 58.9344 211.889 52.7912 211.71 46.4042 206.847 41.5862ZM119.071 18.9171C118.984 15.5064 115.819 12.284 112.878 12.0602 110.476 11.8775 108.678 14.2182 107.964 18.2838 107.218 22.5336 107.029 26.7615 107.335 31.0954 108.014 40.7403 108.021 50.4389 109.478 60.0194 110.041 63.7182 110.553 67.5002 112.745 70.7325 113.538 71.9015 114.589 72.5266 116.035 72.2414 117.476 71.957 117.798 70.8151 117.959 69.5943 119.419 58.5205 120.757 47.4378 120.27 35.2609 121.041 30.3805 119.22 24.7145 119.071 18.9172Z" id="Graphic" class="MsftOfcThm_Accent4_lumMod_60_lumOff_40_Fill_v2" stroke-width="0" fill="#9FACAC"/></svg>