<svg viewBox="0 0 256 199" xmlns="http://www.w3.org/2000/svg" xmlns:xlink="http://www.w3.org/1999/xlink" id="Inky_abstract_shapes" overflow="hidden"><style>
.MsftOfcThm_Accent3_lumMod_75_Fill_v2 {
 fill:#697F83; 
}
</style>
<defs></defs><path d="M245.924 106.568C245.628 101.204 244.956 95.8709 241.947 91.2342 240.98 89.7443 241.137 87.9758 240.137 86.5175 236.665 81.4495 232.725 76.9397 228.105 72.7628 220.077 65.5049 210.825 61.1832 200.628 58.2349 191.306 55.5394 181.847 54.1591 172.176 54.5827 162.141 55.0222 152.157 56.5763 142.067 55.7881 138.159 55.4829 134.125 56.1779 130.34 55.0448 118.377 51.4631 108.964 43.8185 100.409 35.1481 93.7143 28.3636 87.0669 21.6945 79.0825 16.3031 71.4248 11.1324 63.2565 9.1094 54.3727 10.3586 44.8967 11.6911 36.0697 14.3569 28.8485 21.6447 23.0262 27.5206 18.3787 33.7548 15.8511 41.5909 15.1323 43.8193 15.0854 46.4077 14.0199 48.3131 10.7387 54.1812 11.1824 60.774 10.437 66.9405 9.4021 75.5032 10.4027 84.2949 11.397 92.9474 11.5625 94.3882 11.8313 95.8286 12.5468 97.0885 13.2037 98.2452 13.4988 99.403 13.2954 100.493 13.2627 102.151 13.4481 103.546 13.9264 104.943 16.9917 113.898 19.8613 122.928 24.849 131.082 26.772 134.226 28.6097 137.393 32.0786 139.173 37.1205 141.761 40.23 146.59 44.4621 150.139 46.5475 151.889 48.244 154.153 50.5615 155.752 53.4276 157.729 56.1135 159.851 58.3625 162.643 60.179 164.899 62.5498 167.184 65.164 168.217 70.0865 170.161 73.8686 174.027 79.0963 175.49 83.3324 176.675 87.181 179.23 91.6106 180.009 97.9318 181.12 103.997 183.214 110.341 184.398 120.008 186.202 129.408 189.368 139.449 188.329 140.322 188.239 141.255 188.425 142.122 188.638 144.555 189.236 146.941 189.048 149.323 188.404 151.412 187.839 153.526 187.453 155.698 187.364 160.275 187.178 164.834 186.696 169.281 185.621 177.036 183.745 184.634 181.523 191.984 178.192 200.176 174.479 208.414 170.85 215.676 165.593 226.062 158.073 233.919 148.354 239.302 136.555 243.677 126.966 246.508 117.169 245.924 106.568ZM229.909 130.511C228.788 133.439 228.051 136.471 226.795 139.384 224.068 145.708 219.041 150.165 214.423 154.758 211.521 157.644 207.808 160.068 204.016 162.179 199.947 164.443 195.804 166.602 191.58 168.426 184.761 171.372 177.651 173.667 170.401 175.427 166.74 176.316 163.079 177.211 159.428 178.14 156.62 178.855 153.81 179.405 150.895 178.905 150.458 178.829 149.984 178.79 149.553 178.872 138.142 181.013 126.949 178.73 115.965 176.356 110.074 175.083 103.967 173.635 98.5124 170.413 93.9935 167.743 88.9536 166.021 84.2332 163.643 79.6482 161.334 75.7609 158.045 71.2001 155.763 69.0531 154.689 66.8341 153.725 64.7156 152.575 61.3046 150.723 58.6837 147.842 55.5101 145.652 47.6817 140.252 41.0836 133.436 35.2331 126.002 32.9734 123.13 31.7692 119.422 30.1196 116.077 27.391 110.544 26.8782 104.252 24.1973 98.6984 23.7009 97.6703 24.1133 96.5683 24.2201 95.4842 24.054 94.063 23.9546 92.6304 23.7105 91.2228 22.4813 84.1345 23.1097 77.0076 23.0377 69.8837 22.9736 63.5386 24.469 57.4566 25.042 51.2352 25.2119 49.3904 26.0634 47.7897 26.6553 46.1084 28.9029 39.7256 32.0086 33.8135 36.2565 28.4826 40.2679 23.4485 45.661 20.9646 51.6195 19.1845 58.8254 17.0317 65.6097 17.8097 72.1552 21.4181 74.8016 22.877 76.9061 24.9408 78.9437 27.1078 83.1081 31.5366 87.5581 35.7317 91.3857 40.4344 97.1191 47.4786 104.123 52.9517 111.554 57.946 115.926 60.8842 120.982 62.3805 126.049 63.6013 130.738 64.7308 135.44 65.7677 140.349 65.8258 146.916 65.9036 153.44 65.3837 159.966 64.913 171.43 64.0859 182.931 63.1394 194.15 66.3558 202.997 68.8921 210.752 73.8391 217.797 79.6015 221.561 82.6806 224.142 87.1041 226.979 91.1521 231.01 96.9028 232.186 103.564 233.1 110.229 234.059 117.226 232.405 123.992 229.909 130.511ZM178.007 104.028C177.372 102.347 176.483 100.367 175.128 98.7522 172.691 95.8463 169.9 93.4306 166.737 91.4475 162.789 88.9722 159.102 85.8033 154.496 84.7543 148.716 83.4381 143.373 80.8129 137.552 79.6551 132.008 78.5523 126.574 76.8653 121.013 75.8832 115.654 74.9369 110.436 73.3896 105.648 71.0918 97.8907 67.3691 91.0231 62.0599 84.4651 56.5052 78.0765 51.0939 71.7844 45.6496 64.0304 42.2063 56.842 39.0142 49.7217 38.19 42.6869 42.5031 40.514 43.8353 39.1342 45.6356 38.2782 48.2777 37.369 51.0843 35.0475 53.4257 35.4209 56.7191 35.4277 56.7797 35.2913 56.8449 35.256 56.9234 33.8296 60.1021 32.539 63.5922 33.2804 66.8826 34.2259 71.0783 32.8055 75.1082 33.5226 79.3146 34.0632 82.4857 34.4341 85.8823 34.6108 89.2176 34.9956 96.4823 37.9654 103.237 40.5761 110.006 41.7599 113.075 44.0404 115.49 45.35 118.362 46.7478 121.427 48.981 123.863 50.489 126.806 52.0453 129.844 55.2253 131.803 56.9553 134.542 60.9367 140.846 66.9681 144.747 72.6689 148.838 78.6507 153.132 85.6528 155.776 92.917 157.627 99.4381 159.29 106.177 159.516 112.701 161.27 116.164 162.2 119.815 163.334 123.553 162.998 133.011 162.148 141.999 159.399 150.748 155.879 155.104 154.127 158.684 150.937 162.746 148.651 169.405 144.904 174.096 139.448 177.678 132.881 180.217 128.226 182.566 123.496 182.156 117.902 182.835 112.725 179.709 108.535 178.007 104.028ZM164.796 132.176C161.148 137.163 157.273 142.134 151.275 144.914 148.317 146.285 145.305 147.684 142.543 149.588 140.621 150.912 138.092 151.408 135.785 152.11 123.2 155.943 110.667 154.388 98.3416 151.079 92.504 149.512 87.2669 146.196 82.2339 142.763 81.5665 142.307 80.9243 141.76 80.1859 141.473 73.9126 139.034 69.9851 133.561 64.978 129.516 62.6978 127.674 61.7536 124.267 59.8097 121.892 57.9543 119.626 56.9751 116.9 55.2791 114.586 55.2262 114.513 55.1216 114.462 55.1026 114.385 53.7883 109.076 50.64 104.417 49.5037 99.0821 48.5576 94.6402 47.3746 90.2473 46.2568 85.8656 45.562 83.1419 46.0588 80.5724 45.9123 77.9808 45.5298 71.2146 46.1395 64.406 46.2686 57.6198 46.3238 54.7204 47.042 50.8623 50.53 48.9396 51.6847 48.3032 52.7834 48.2384 53.8899 48.5226 57.7255 49.5075 61.3681 50.7909 64.5155 53.4622 68.5327 56.8718 73.0652 59.6832 77.0077 63.1687 81.0269 66.722 85.2596 69.9797 89.6129 73.0529 95.7709 77.3999 102.414 80.9055 109.852 82.6122 111.901 83.0824 113.703 84.0749 115.562 84.9701 119.499 86.8652 123.935 86.884 128.022 88.2732 132.858 89.9169 137.94 90.9257 142.632 92.8875 150.061 95.994 157.286 99.5987 162.473 106.176 163.897 107.982 165.763 109.377 167.079 111.345 167.843 112.488 168.144 113.547 168.178 114.706 167.502 120.697 168.481 127.135 164.796 132.176ZM117.61 109.154C111.84 102.113 104.696 96.4723 96.98 91.7522 91.4098 88.3447 85.6605 85.163 80.2462 81.5406 76.0242 78.7159 71.6806 77.1823 66.7462 76.899 66.2997 76.8474 65.853 76.7504 65.4065 76.7513 61.5856 76.7599 56.5428 80.3633 55.9992 83.2398 55.0085 88.4819 55.9279 93.6238 57.5424 98.4528 61.0934 109.074 65.8929 119.048 74.5625 126.702 76.8007 128.678 79.3597 130.15 81.5822 132.049 85.0918 135.049 89.4554 136.372 93.5422 137.669 100.902 140.007 108.345 138.494 115.299 135.248 117.633 134.159 120.242 132.871 120.958 130.155 121.557 127.885 122.4 125.746 123.226 123.581 123.567 122.689 123.425 121.804 123.258 120.919 122.426 116.494 120.37 112.522 117.61 109.154ZM114.281 123.133C112.592 127.105 110.781 129.017 107.583 128.864 100.834 128.348 94.9246 127.629 89.7225 124.602 86.7276 122.858 84.1197 120.443 81.3667 118.293 74.4922 112.924 70.8038 105.43 67.5731 97.6151 66.1896 94.268 64.6875 91.0053 64.242 87.3243 64.0624 85.8402 64.1684 84.6205 65.0839 83.5686 66.1216 82.3764 67.5041 82.9787 68.5878 83.4297 74.8751 86.0459 80.5065 89.7199 85.8607 93.937 89.2216 96.584 93.2455 98.3926 96.5863 101.06 101.795 105.22 107.968 108.187 112.107 113.699 114.272 116.581 115.983 119.128 114.281 123.133ZM106.473 114.78C102.397 111.528 98.9643 107.508 94.561 104.685 90.9933 102.398 87.231 100.438 82.8129 100.393 79.3239 100.356 77.3021 102.614 77.6971 106.081 77.9249 108.081 78.594 109.873 79.7482 111.568 81.9353 114.781 84.3707 117.599 87.7234 119.764 91.1188 121.956 94.4405 123.862 99.2368 123.593 101.114 123.787 103.473 123.407 105.577 121.968 108.369 120.06 108.946 116.752 106.473 114.779ZM82.8516 105.698C88.6695 105.996 101.009 113.249 101.954 116.788 97.1946 116.552 86.9824 110.702 82.8516 105.698Z" id="Graphic" class="MsftOfcThm_Accent3_lumMod_75_Fill_v2" stroke-width="0" fill="#697F83" fill-opacity="0.2"/></svg>