<svg viewBox="0 0 223 256" xmlns="http://www.w3.org/2000/svg" xmlns:xlink="http://www.w3.org/1999/xlink" id="Inky_abstract_shapes" overflow="hidden"><style>
.MsftOfcThm_Accent4_Fill_v2 {
 fill:#627272; 
}
</style>
<defs></defs><path d="M42.1685 168.406C40.0278 166.977 37.3125 166.657 34.5947 166.483 30.8879 166.245 27.0119 166.479 23.6446 164.133 22.7741 163.526 21.2196 163.518 20.0832 163.749 15.5064 164.678 12.6867 162.232 11.0036 158.62 9.3503 155.071 9.7546 151.186 12.1054 147.977 15.0695 143.931 17.6447 139.486 23.1117 137.917 25.8428 137.134 28.1902 136.005 30.9515 137.73 34.1222 139.71 38.0397 138.28 41.4612 139.902 43.9306 141.072 46.6234 141.856 48.9984 143.281 50.0229 143.896 51.1506 144.162 52.1944 144.05 57.9533 143.432 62.5391 146.45 67.2759 148.87 69.8592 150.19 72.3366 151.448 75.2688 152.003 79.2454 152.756 80.2188 154.683 79.4683 158.741 77.9422 166.992 73.8464 170.253 64.251 170.11 58.6271 170.688 52.095 170.788 45.5651 169.842 44.2379 169.65 43.3165 169.173 42.1684 168.406ZM51.2806 117.112C48.4618 118.724 46.0722 122.477 46.8616 124.747 47.903 127.743 49.9444 129.763 53.4029 130.027 55.1784 130.163 56.7446 131.129 58.3693 131.874 62.8758 133.938 67.5453 135.894 72.4262 136.483 80.4614 137.453 88.5579 138.341 96.708 137.581 101.431 137.301 106.336 137.242 110.508 134.908 112.932 133.553 115.578 132.278 117.353 129.536 119.298 126.532 119.556 123.329 120.27 120.118 121.811 113.191 117.072 108.843 109.963 110.015 104.34 110.941 98.6971 111.936 92.9178 112.019 89.1812 112.072 85.3913 111.949 81.7218 112.226 73.5568 112.843 65.5085 114.71 57.2926 115.228 55.2341 115.358 53.1503 116.043 51.2806 117.112ZM19.5274 91.099C24.4812 93.9578 30.1457 94.7599 35.2024 97.206 39.2622 99.1698 43.3433 100.554 47.8693 98.719 48.3912 98.5074 49.3055 98.6996 49.7881 99.0497 52.7832 101.223 56.2496 101.552 59.7592 102.083 63.2597 102.613 66.7347 102.774 70.2544 102.961 75.6953 103.248 78.4297 101.182 78.5866 95.7173 78.7718 92.364 77.4446 89.9155 74.8522 87.6621 71.9218 85.1146 68.2108 84.1834 65.1153 82.0048 61.5939 79.5265 56.9926 79.0734 53.4466 76.423 52.8665 75.9893 51.6705 76.0953 50.8588 76.3173 49.0155 76.8214 47.6305 76.1578 46.2553 75.0611 42.0294 71.6906 37.762 68.4248 31.7855 69.7788 31.1933 69.913 30.4347 69.651 29.841 69.3802 26.7037 67.9492 23.289 68.1892 20.0016 67.7778 16.7926 67.3762 12.6381 70.2624 11.8224 73.013 10.0476 78.9979 14.13 87.9844 19.5272 91.0992ZM106.476 229.063C101.512 226.346 96.2008 224.467 91.2816 221.411 85.3884 217.751 78.127 216.853 71.0701 216.702 68.8964 216.656 67.0313 215.156 64.9687 215.483 57.8864 216.605 52.2239 220.027 48.8314 226.55 46.734 230.583 49.1451 238.437 53.1815 239.451 57.6072 240.564 61.8608 242.238 66.1774 243.319 70.4003 244.376 74.9223 245.303 79.4511 245.424 81.7018 245.484 83.6138 243.763 85.9608 244.559 89.4811 245.752 93.2228 245.441 96.293 245.993 99.9312 246.099 102.721 244.957 105.591 244.045 109.394 242.836 110.818 239.964 110.969 236.414 111.108 233.121 109.17 230.538 106.476 229.063ZM158.692 207.642C152.508 204.26 147.145 198.833 139.225 199.42 138.003 199.511 136.615 198.807 135.479 198.161 134.539 197.628 133.692 197.334 132.663 197.567 128.297 198.557 123.839 197.79 119.446 198.26 115.805 198.65 112.137 198.859 108.529 199.447 105.552 199.933 103.54 201.994 102.587 204.77 101.63 207.556 103.901 209.007 105.618 210.54 108.151 212.801 110.455 215.588 113.401 217.051 117.25 218.963 119.53 223.839 124.773 223.13 125.63 223.014 126.431 223.734 126.837 224.617 127.367 225.769 128.498 226.221 129.521 226.39 134.667 227.237 139.838 227.928 144.974 228.669 150.492 228.048 155.292 226.338 158.378 221.431 159.84 219.105 159.451 216.222 160.486 213.783 161.606 211.145 160.819 208.806 158.692 207.642ZM80.9372 207.547C83.5527 208.314 86.141 206.853 88.6492 205.876 92.966 204.195 97.5767 202.675 99.9615 198.094 101.829 194.507 102.256 190.524 102.77 186.616 102.977 185.036 101.7 183.603 100.36 182.817 97.0662 180.887 93.4702 179.591 89.6147 180.426 79.7445 182.564 69.7516 183.841 59.709 184.579 56.1021 184.845 52.5687 186.272 48.8194 185.233 45.717 184.374 42.7248 186.046 41.1768 189.175 39.8075 191.943 41.1451 193.931 42.968 196.029 47.2552 200.965 53.2222 202.595 58.9814 204.689 65.98 207.235 73.3131 207.245 80.9372 207.547ZM170.164 117.233C166.412 116.228 162.817 115.129 158.904 115.968 156.935 116.39 154.905 116.131 152.931 116.262 148.793 116.537 144.49 114.848 140.514 117.132 136.999 119.152 134.242 121.887 133.894 126.122 133.55 130.297 136.753 131.796 139.807 133.653 143.09 135.649 146.816 136.919 149.704 139.543 150.321 140.103 150.898 140.379 151.728 140.471 159.018 141.283 166.295 142.217 173.589 142.991 183.488 144.043 191.785 137.318 191.886 128.269 192.814 123.037 188.79 120.281 183.654 119.492 179.144 118.798 174.548 118.407 170.164 117.233ZM212.873 182.664C212.363 180.101 209.257 177.939 205.275 177.73 198.873 177.394 192.568 175.84 186.044 176.743 183.208 177.136 180.093 176.622 177.295 175.838 174.831 175.148 172.494 174.819 170.105 175.484 166.923 176.371 163.686 175.781 161.282 176.146 157.94 176.146 155.38 176.031 152.834 176.174 149.316 176.37 145.448 179.559 144.419 182.893 143.321 186.453 144.951 189.48 148.526 190.809 151.671 191.977 155.005 192.272 158.212 193.129 161.489 194.004 164.466 195.983 168.106 195.542 169.493 195.373 170.929 195.339 172.363 195.354 177.025 195.406 181.538 196.858 186.108 196.854 189.842 196.85 193.639 196.568 197.372 196.676 201.438 196.794 205.029 195.87 208.472 193.881 211.176 192.32 213.587 186.247 212.873 182.664ZM111.302 47.7251C109.518 47.6808 107.903 49.0098 105.974 48.2263 100.418 48.5561 94.8167 49.4684 89.5047 51.2405 86.439 52.2631 83.2955 53.4825 80.2311 53.8394 74.8115 54.4709 69.7596 56.3812 64.4663 57.3524 63.124 57.5988 62.189 58.6532 61.7987 60.0915 60.9959 63.0497 63.0015 67.2076 66.0882 68.2761 68.6833 69.1744 71.3822 69.9916 74.0956 70.2865 82.8382 71.2373 91.6677 71.5398 100.349 72.8543 106.509 73.7871 112.203 72.6892 117.944 71.0821 122.036 69.9365 124.356 66.8806 124.738 62.6695 125.422 55.1397 118.892 47.9139 111.301 47.725ZM114.514 34.7125C116.246 34.3755 118.694 33.1763 119.922 34.4306 121.847 36.3978 123.928 35.9124 126.055 36.1066 131.049 36.5624 136.032 35.3365 141.023 35.9932 145.274 36.585 149.522 35.9237 153.633 35.2549 157.61 34.6079 161.858 34.52 165.471 32.1572 168.36 30.268 168.763 27.2947 168.368 24.474 167.998 21.8383 165.32 22.0568 163.205 21.9549 162.652 21.9282 162.068 21.8882 161.559 21.6952 153.798 18.7581 145.265 18.2843 137.852 14.2597 133.629 11.9675 128.408 13.6399 124.334 10.7844 122.585 9.5587 120.736 10.0144 118.87 10.5121 112.657 12.1694 109.094 16.6933 106.266 22.058 103.56 27.1922 107.994 35.9816 114.514 34.7127ZM102.042 164.495C106.819 165.355 109.403 169.251 113.568 170.979 117.171 172.473 120.656 172.949 124.258 173.658 127.995 174.393 131.489 172.456 135.177 172.693 142.333 172.84 150.664 169.688 152.558 164.975 155.939 156.562 156.81 153.516 148.013 150.794 143.902 149.522 139.471 148.813 135.181 148.01 132.636 147.533 129.832 147.231 126.983 147.574 120.012 148.412 113.631 151.474 106.715 152.416 104.159 152.765 101.811 153.793 100.02 155.864 97.0234 159.329 97.6311 163.7 102.042 164.495ZM159.258 54.2293C156.755 55.1119 154.257 55.8036 151.522 56.0295 146.09 56.478 140.671 57.172 137.272 62.5912 135.211 65.8786 136.115 70.9577 140.901 71.9047 144.248 72.5671 148.234 72.5889 150.545 75.793 151.721 77.4248 153.394 78.3972 154.936 78.438 158.511 78.5324 161.886 79.8913 165.476 79.8179 171.101 79.6954 175.6 76.4339 180.459 74.2472 185.334 72.0538 186.278 66.9995 185.627 62.9252 185.071 59.449 182.015 56.2653 178.242 54.2176 175.522 52.7412 172.909 54.2639 170.568 53.3702 166.537 51.8313 162.959 52.924 159.258 54.2291ZM111.902 81.0974C111.061 81.5001 110.179 81.4057 109.285 81.2294 102.188 79.8285 98.346 81.5528 94.6965 87.8374 93.1328 90.5301 92.8441 93.3141 94.7361 95.9732 96.7758 98.8395 99.5325 98.5513 102.452 97.589 103.646 97.1956 104.887 96.1832 106.205 97.251 108.032 98.7315 110.228 98.6331 112.273 98.4097 118.474 97.7318 124.674 99.8647 130.863 98.3204 131.369 98.1943 132.004 98.3122 132.509 98.5034 138.627 100.821 145.256 97.8136 150.714 100.476 153.657 100.053 156.027 100.109 158.183 99.0145 159.762 98.2131 160.308 96.8327 160.428 95.1803 160.558 93.3749 159.125 92.9861 157.919 92.5181 155.647 91.6369 153.392 90.5976 150.818 91.1651 149.947 91.3571 148.981 91.3589 148.289 90.6673 146.094 88.4739 142.995 88.172 140.348 87.6887 134.096 86.547 128.626 83.2938 122.493 81.8659 118.919 81.0339 115.602 79.3257 111.902 81.0974ZM70.6315 42.182C76.1922 41.2126 81.8961 41.4473 86.7333 39.7101 88.9503 40.2838 90.4343 39.5595 91.9575 39.3593 96.6921 38.737 98.477 34.2006 95.4341 30.5028 92.8801 27.3993 89.1744 26.1354 85.5471 24.7883 79.7089 22.62 73.9986 20.1097 68.2479 17.7401 64.3828 16.1474 60.6095 15.0717 56.6992 15.9685 53.6477 16.6683 51.1997 18.8104 50.7527 22.3657 50.3681 25.4248 50.2622 28.388 51.4357 31.4154 55.3029 41.3925 60.4906 43.9499 70.6316 42.1821Z" id="Graphic" class="MsftOfcThm_Accent4_Fill_v2" stroke-width="0" fill="#627272" fill-opacity="0.05915"/></svg>